<svg width="503" height="127" viewBox="0 0 503 127" fill="none" xmlns="http://www.w3.org/2000/svg">
<path d="M128.407 45.366L128.911 52.1467C133.207 46.879 139.017 44.2452 146.339 44.2452C154.147 44.2452 159.508 47.3274 162.422 53.4916C166.681 47.3274 172.752 44.2452 180.635 44.2452C187.21 44.2452 192.104 46.1692 195.317 50.0172C198.53 53.8279 200.137 59.5812 200.137 67.2772V106H183.885V67.3332C183.885 63.8962 183.213 61.3931 181.868 59.824C180.523 58.2176 178.151 57.4143 174.751 57.4143C169.894 57.4143 166.532 59.7306 164.664 64.3632L164.72 106H148.525V67.3893C148.525 63.8775 147.834 61.3371 146.451 59.768C145.069 58.1989 142.715 57.4143 139.39 57.4143C134.795 57.4143 131.47 59.3197 129.416 63.1303V106H113.22V45.366H128.407ZM210.111 75.1226C210.111 69.1078 211.27 63.7467 213.586 59.0395C215.902 54.3322 219.227 50.6897 223.561 48.1119C227.932 45.5341 232.994 44.2452 238.747 44.2452C246.929 44.2452 253.598 46.7483 258.753 51.7544C263.946 56.7606 266.841 63.5599 267.439 72.1526L267.551 76.2994C267.551 85.6019 264.955 93.0737 259.762 98.715C254.569 104.319 247.601 107.121 238.859 107.121C230.117 107.121 223.131 104.319 217.901 98.715C212.708 93.1111 210.111 85.4898 210.111 75.8511V75.1226ZM226.307 76.2994C226.307 82.0527 227.39 86.4611 229.557 89.5246C231.724 92.5507 234.825 94.0637 238.859 94.0637C242.782 94.0637 245.846 92.5694 248.05 89.5806C250.254 86.5545 251.356 81.7352 251.356 75.1226C251.356 69.4814 250.254 65.1103 248.05 62.0095C245.846 58.9087 242.745 57.3583 238.747 57.3583C234.787 57.3583 231.724 58.9087 229.557 62.0095C227.39 65.073 226.307 69.8363 226.307 76.2994ZM311.598 60.5525C309.394 60.2536 307.451 60.1042 305.77 60.1042C299.643 60.1042 295.627 62.1776 293.721 66.3245V106H277.526V45.366H292.825L293.273 52.595C296.523 47.0285 301.025 44.2452 306.778 44.2452C308.572 44.2452 310.253 44.4881 311.822 44.9737L311.598 60.5525ZM352.282 89.2444C352.282 87.2644 351.292 85.7139 349.312 84.5932C347.369 83.435 344.231 82.4077 339.897 81.511C325.477 78.4849 318.266 72.358 318.266 63.1303C318.266 57.7506 320.489 53.2675 324.935 49.681C329.418 46.0571 335.265 44.2452 342.475 44.2452C350.171 44.2452 356.317 46.0571 360.912 49.681C365.544 53.3048 367.861 58.0121 367.861 63.8028H351.665C351.665 61.4865 350.918 59.5812 349.424 58.0868C347.93 56.5551 345.595 55.7892 342.419 55.7892C339.692 55.7892 337.581 56.4056 336.087 57.6385C334.592 58.8714 333.845 60.4404 333.845 62.3458C333.845 64.139 334.686 65.596 336.367 66.7168C338.085 67.8002 340.962 68.7529 344.997 69.5748C349.032 70.3593 352.431 71.2559 355.196 72.2646C363.751 75.4028 368.029 80.8386 368.029 88.5719C368.029 94.1011 365.657 98.5842 360.912 102.021C356.167 105.421 350.04 107.121 342.531 107.121C337.45 107.121 332.93 106.224 328.97 104.431C325.047 102.6 321.965 100.116 319.723 96.9778C317.482 93.8022 316.361 90.3838 316.361 86.7226H331.716C331.865 89.5993 332.93 91.8035 334.91 93.3352C336.89 94.867 339.542 95.6328 342.867 95.6328C345.968 95.6328 348.303 95.0538 349.872 93.8956C351.479 92.7001 352.282 91.1497 352.282 89.2444ZM406.415 107.121C397.524 107.121 390.276 104.394 384.672 98.9391C379.106 93.4847 376.323 86.2183 376.323 77.14V75.5709C376.323 69.4814 377.499 64.0456 379.853 59.2636C382.207 54.4443 385.532 50.7457 389.828 48.1679C394.162 45.5528 399.093 44.2452 404.622 44.2452C412.916 44.2452 419.435 46.8604 424.18 52.0907C428.962 57.3209 431.353 64.7367 431.353 74.3381V80.9506H392.742C393.265 84.9107 394.834 88.0863 397.449 90.4772C400.102 92.8682 403.445 94.0637 407.48 94.0637C413.719 94.0637 418.595 91.8035 422.106 87.283L430.064 96.1932C427.635 99.6303 424.348 102.32 420.201 104.263C416.054 106.168 411.459 107.121 406.415 107.121ZM404.566 57.3583C401.353 57.3583 398.738 58.4417 396.721 60.6086C394.741 62.7754 393.47 65.8762 392.91 69.911H415.438V68.6221C415.363 65.0356 414.392 62.271 412.524 60.3284C410.656 58.3483 408.003 57.3583 404.566 57.3583ZM438.077 75.1226C438.077 69.1078 439.235 63.7467 441.552 59.0395C443.868 54.3322 447.193 50.6897 451.527 48.1119C455.898 45.5341 460.96 44.2452 466.713 44.2452C474.895 44.2452 481.563 46.7483 486.719 51.7544C491.912 56.7606 494.807 63.5599 495.405 72.1526L495.517 76.2994C495.517 85.6019 492.921 93.0737 487.728 98.715C482.535 104.319 475.567 107.121 466.825 107.121C458.083 107.121 451.097 104.319 445.867 98.715C440.674 93.1111 438.077 85.4898 438.077 75.8511V75.1226ZM454.273 76.2994C454.273 82.0527 455.356 86.4611 457.523 89.5246C459.69 92.5507 462.79 94.0637 466.825 94.0637C470.748 94.0637 473.811 92.5694 476.016 89.5806C478.22 86.5545 479.322 81.7352 479.322 75.1226C479.322 69.4814 478.22 65.1103 476.016 62.0095C473.811 58.9087 470.711 57.3583 466.713 57.3583C462.753 57.3583 459.69 58.9087 457.523 62.0095C455.356 65.073 454.273 69.8363 454.273 76.2994Z" fill="white"/>
<rect x="3.05176e-05" y="47.5089" width="11.1964" height="40.3071" fill="white"/>
<rect x="44.7857" y="47.5089" width="11.1964" height="40.3071" fill="white"/>
<rect x="22.3929" y="47.5089" width="11.1964" height="40.3071" fill="white"/>
<rect x="43.2929" y="36.3125" width="11.1964" height="43.2929" transform="rotate(90 43.2929 36.3125)" fill="white"/>
<rect x="78.375" y="36.3125" width="11.1964" height="43.2929" transform="rotate(90 78.375 36.3125)" fill="white"/>
<rect x="67.1786" y="47.5089" width="11.1964" height="40.3071" fill="white"/>
<rect x="22.3929" y="47.5089" width="33.5893" height="21.6464" fill="white"/>
<rect x="3.05176e-05" y="94.5339" width="33.5893" height="11.1964" fill="white"/>
<rect x="44.7857" y="94.5339" width="33.5893" height="11.1964" fill="white"/>
</svg>
