<svg width="510" height="510" viewBox="0 0 510 510" fill="none" xmlns="http://www.w3.org/2000/svg">
<circle cx="75" cy="75" r="75" fill="#878FFE"/>
<circle cx="255" cy="75" r="75" fill="#878FFE"/>
<circle cx="435" cy="75" r="75" fill="#878FFE"/>
<circle cx="75" cy="255" r="75" fill="#878FFE"/>
<circle cx="255" cy="255" r="75" fill="#878FFE"/>
<circle cx="435" cy="255" r="75" fill="#878FFE"/>
<circle cx="75" cy="435" r="75" fill="#878FFE"/>
<circle cx="255" cy="435" r="75" fill="#E3E0FD"/>
<circle cx="435" cy="435" r="75" fill="#878FFE"/>
<path d="M510 255C510 296.421 476.421 330 435 330C393.902 330 360.525 296.944 360.006 255.97L360 255L360 75C360 33.5786 393.579 -5.08894e-06 435 -3.27835e-06C476.421 -1.46777e-06 510 33.5786 510 75L510 255Z" fill="#878FFE"/>
<path d="M150 255C150 296.421 116.421 330 75 330C33.9024 330 0.525042 296.944 0.00584819 255.97L-1.11464e-05 255L-3.27835e-06 75C-1.46777e-06 33.5786 33.5786 -5.08894e-06 75 -3.27835e-06C116.421 -1.46777e-06 150 33.5786 150 75L150 255Z" fill="#878FFE"/>
</svg>
